<svg xmlns="http://www.w3.org/2000/svg" viewBox="0 0 64 64">
  <rect width="64" height="64" rx="14" fill="#151922"/>
  <rect x="16" y="10" width="30" height="42" rx="6" fill="#f8fafc"/>
  <path d="M21 18h18M21 25h14M21 32h10" stroke="#151922" stroke-width="4" stroke-linecap="round"/>
  <path d="M18 46l4 4 4-4 4 4 4-4 4 4 4-4" fill="none" stroke="#151922" stroke-width="4" stroke-linecap="round" stroke-linejoin="round"/>
  <circle cx="43" cy="43" r="13" fill="#ffc640" stroke="#151922" stroke-width="4"/>
  <path d="M43 34v18M37 39c0-3 3-5 7-5 3 0 5 1 6 3M50 47c0 3-3 5-7 5-3 0-6-1-7-3" fill="none" stroke="#151922" stroke-width="3.5" stroke-linecap="round"/>
</svg>
